<?xml version="1.0" encoding="UTF-8" standalone="no"?>
<svg
   xmlns:dc="http://purl.org/dc/elements/1.1/"
   xmlns:cc="http://creativecommons.org/ns#"
   xmlns:rdf="http://www.w3.org/1999/02/22-rdf-syntax-ns#"
   xmlns:svg="http://www.w3.org/2000/svg"
   xmlns="http://www.w3.org/2000/svg"
   viewBox="0 0 362.88 362.88"
   height="362.88"
   width="362.88"
   xml:space="preserve"
   id="svg2"
   version="1.1"><metadata
     id="metadata8"><rdf:RDF><cc:Work
         rdf:about=""><dc:format>image/svg+xml</dc:format><dc:type
           rdf:resource="http://purl.org/dc/dcmitype/StillImage" /><dc:title></dc:title></cc:Work></rdf:RDF></metadata><defs
     id="defs6"><clipPath
       id="clipPath18"
       clipPathUnits="userSpaceOnUse"><path
         style="clip-rule:evenodd"
         id="path16"
         d="M 0,1.2207e-4 H 960 V 540.00012 H 0 Z" /></clipPath><clipPath
       id="clipPath48"
       clipPathUnits="userSpaceOnUse"><path
         style="clip-rule:evenodd"
         id="path46"
         d="M 9.1553e-5,540 H 960 V 1.8311e-4 H 1.2207e-4" /></clipPath><clipPath
       id="clipPath58"
       clipPathUnits="userSpaceOnUse"><path
         style="clip-rule:evenodd"
         id="path56"
         d="M -6.1035e-5,540 H 960 V 1.2207e-4 H -6.1035e-5" /></clipPath><clipPath
       id="clipPath68"
       clipPathUnits="userSpaceOnUse"><path
         style="clip-rule:evenodd"
         id="path66"
         d="M -6.1035e-5,540 H 960 V 6.1035e-5 H -3.0518e-5" /></clipPath><clipPath
       id="clipPath78"
       clipPathUnits="userSpaceOnUse"><path
         style="clip-rule:evenodd"
         id="path76"
         d="M -3.0518e-5,540 H 960 V 1.8311e-4 L 0,1.2207e-4" /></clipPath><clipPath
       id="clipPath88"
       clipPathUnits="userSpaceOnUse"><path
         style="clip-rule:evenodd"
         id="path86"
         d="M 3.0518e-5,540 H 960 V 0 L 6.1035e-5,1.2207e-4" /></clipPath><clipPath
       id="clipPath98"
       clipPathUnits="userSpaceOnUse"><path
         style="clip-rule:evenodd"
         id="path96"
         d="M -9.1553e-5,540 H 960 V 1.8311e-4 L -6.1035e-5,1.2207e-4" /></clipPath><clipPath
       id="clipPath108"
       clipPathUnits="userSpaceOnUse"><path
         style="clip-rule:evenodd"
         id="path106"
         d="M -6.1035e-5,540 H 960 V 6.1035e-5 L 0,0" /></clipPath><clipPath
       id="clipPath118"
       clipPathUnits="userSpaceOnUse"><path
         style="clip-rule:evenodd"
         id="path116"
         d="M 3.0518e-5,540 H 960 V 3.0518e-4 L 6.1035e-5,1.8311e-4" /></clipPath><clipPath
       id="clipPath128"
       clipPathUnits="userSpaceOnUse"><path
         style="clip-rule:evenodd"
         id="path126"
         d="M -3.0518e-5,540 H 960 V 6.1035e-5 H 0" /></clipPath><clipPath
       id="clipPath138"
       clipPathUnits="userSpaceOnUse"><path
         style="clip-rule:evenodd"
         id="path136"
         d="M -3.0518e-5,540 H 960 V 1.2207e-4 H 0" /></clipPath><clipPath
       id="clipPath148"
       clipPathUnits="userSpaceOnUse"><path
         style="clip-rule:evenodd"
         id="path146"
         d="M -6.1035e-5,540 H 960 V -6.1035e-5 L -9.1553e-5,0" /></clipPath><clipPath
       id="clipPath158"
       clipPathUnits="userSpaceOnUse"><path
         style="clip-rule:evenodd"
         id="path156"
         d="M 1.4305e-5,0 H 960.00001 V 540 H 1.4305e-5 Z" /></clipPath><clipPath
       id="clipPath170"
       clipPathUnits="userSpaceOnUse"><path
         style="clip-rule:evenodd"
         id="path168"
         d="M 1.4305e-5,0 H 960.00001 V 540 H 1.4305e-5 Z" /></clipPath><clipPath
       id="clipPath182"
       clipPathUnits="userSpaceOnUse"><path
         style="clip-rule:evenodd"
         id="path180"
         d="M 1.4305e-5,0 H 960.00001 V 540 H 1.4305e-5 Z" /></clipPath><clipPath
       id="clipPath194"
       clipPathUnits="userSpaceOnUse"><path
         style="clip-rule:evenodd"
         id="path192"
         d="M 1.4305e-5,0 H 960.00001 V 540 H 1.4305e-5 Z" /></clipPath><clipPath
       id="clipPath206"
       clipPathUnits="userSpaceOnUse"><path
         style="clip-rule:evenodd"
         id="path204"
         d="M 1.4305e-5,0 H 960.00001 V 540 H 1.4305e-5 Z" /></clipPath><clipPath
       id="clipPath218"
       clipPathUnits="userSpaceOnUse"><path
         style="clip-rule:evenodd"
         id="path216"
         d="M 1.4305e-5,0 H 960.00001 V 540 H 1.4305e-5 Z" /></clipPath><clipPath
       id="clipPath230"
       clipPathUnits="userSpaceOnUse"><path
         style="clip-rule:evenodd"
         id="path228"
         d="M 1.4305e-5,0 H 960.00001 V 540 H 1.4305e-5 Z" /></clipPath><clipPath
       id="clipPath242"
       clipPathUnits="userSpaceOnUse"><path
         style="clip-rule:evenodd"
         id="path240"
         d="M 1.4305e-5,0 H 960.00001 V 540 H 1.4305e-5 Z" /></clipPath><clipPath
       id="clipPath254"
       clipPathUnits="userSpaceOnUse"><path
         style="clip-rule:evenodd"
         id="path252"
         d="M 1.4305e-5,0 H 960.00001 V 540 H 1.4305e-5 Z" /></clipPath><clipPath
       id="clipPath266"
       clipPathUnits="userSpaceOnUse"><path
         style="clip-rule:evenodd"
         id="path264"
         d="M 1.4305e-5,0 H 960.00001 V 540 H 1.4305e-5 Z" /></clipPath><clipPath
       id="clipPath278"
       clipPathUnits="userSpaceOnUse"><path
         style="clip-rule:evenodd"
         id="path276"
         d="M 1.4305e-5,0 H 960.00001 V 540 H 1.4305e-5 Z" /></clipPath><clipPath
       id="clipPath290"
       clipPathUnits="userSpaceOnUse"><path
         style="clip-rule:evenodd"
         id="path288"
         d="M 1.4305e-5,0 H 960.00001 V 540 H 1.4305e-5 Z" /></clipPath><clipPath
       id="clipPath302"
       clipPathUnits="userSpaceOnUse"><path
         style="clip-rule:evenodd"
         id="path300"
         d="M 1.4305e-5,0 H 960.00001 V 540 H 1.4305e-5 Z" /></clipPath><clipPath
       id="clipPath314"
       clipPathUnits="userSpaceOnUse"><path
         style="clip-rule:evenodd"
         id="path312"
         d="M 1.4305e-5,0 H 960.00001 V 540 H 1.4305e-5 Z" /></clipPath><clipPath
       id="clipPath326"
       clipPathUnits="userSpaceOnUse"><path
         style="clip-rule:evenodd"
         id="path324"
         d="M 1.4305e-5,0 H 960.00001 V 540 H 1.4305e-5 Z" /></clipPath><clipPath
       id="clipPath338"
       clipPathUnits="userSpaceOnUse"><path
         style="clip-rule:evenodd"
         id="path336"
         d="M 1.4305e-5,0 H 960.00001 V 540 H 1.4305e-5 Z" /></clipPath><clipPath
       id="clipPath350"
       clipPathUnits="userSpaceOnUse"><path
         style="clip-rule:evenodd"
         id="path348"
         d="M 1.4305e-5,0 H 960.00001 V 540 H 1.4305e-5 Z" /></clipPath><clipPath
       id="clipPath362"
       clipPathUnits="userSpaceOnUse"><path
         style="clip-rule:evenodd"
         id="path360"
         d="M 1.4305e-5,0 H 960.00001 V 540 H 1.4305e-5 Z" /></clipPath><clipPath
       id="clipPath374"
       clipPathUnits="userSpaceOnUse"><path
         style="clip-rule:evenodd"
         id="path372"
         d="M 1.4305e-5,0 H 960.00001 V 540 H 1.4305e-5 Z" /></clipPath><clipPath
       id="clipPath386"
       clipPathUnits="userSpaceOnUse"><path
         style="clip-rule:evenodd"
         id="path384"
         d="M 1.4305e-5,0 H 960.00001 V 540 H 1.4305e-5 Z" /></clipPath><clipPath
       id="clipPath398"
       clipPathUnits="userSpaceOnUse"><path
         style="clip-rule:evenodd"
         id="path396"
         d="M 1.4305e-5,0 H 960.00001 V 540 H 1.4305e-5 Z" /></clipPath><clipPath
       id="clipPath410"
       clipPathUnits="userSpaceOnUse"><path
         style="clip-rule:evenodd"
         id="path408"
         d="M 1.4305e-5,0 H 960.00001 V 540 H 1.4305e-5 Z" /></clipPath><clipPath
       id="clipPath422"
       clipPathUnits="userSpaceOnUse"><path
         style="clip-rule:evenodd"
         id="path420"
         d="M 1.4305e-5,0 H 960.00001 V 540 H 1.4305e-5 Z" /></clipPath><clipPath
       id="clipPath434"
       clipPathUnits="userSpaceOnUse"><path
         style="clip-rule:evenodd"
         id="path432"
         d="M 1.4305e-5,0 H 960.00001 V 540 H 1.4305e-5 Z" /></clipPath><clipPath
       id="clipPath446"
       clipPathUnits="userSpaceOnUse"><path
         style="clip-rule:evenodd"
         id="path444"
         d="M -6.1035e-5,540 H 960 V 1.2207e-4 H -6.1035e-5" /></clipPath><clipPath
       id="clipPath456"
       clipPathUnits="userSpaceOnUse"><path
         style="clip-rule:evenodd"
         id="path454"
         d="M -6.1035e-5,540 H 960 V 0 L 0,1.2207e-4" /></clipPath><clipPath
       id="clipPath466"
       clipPathUnits="userSpaceOnUse"><path
         style="clip-rule:evenodd"
         id="path464"
         d="M -6.1035e-5,540 H 960 V 0 L -3.0518e-5,6.1035e-5" /></clipPath><clipPath
       id="clipPath476"
       clipPathUnits="userSpaceOnUse"><path
         style="clip-rule:evenodd"
         id="path474"
         d="M -3.0518e-5,540 H 960 V 6.1035e-5 H -6.1035e-5" /></clipPath></defs><g
     transform="matrix(1.3333333,0,0,-1.3333333,-310.23999,603.83998)"
     id="g10"><path
       id="path22"
       style="fill:#5b9bd5;fill-opacity:1;fill-rule:evenodd;stroke:none"
       d="m 369.84,411.77 c 52.56,0 95.16,-42.61 95.16,-95.16 h -95.16 z" /><path
       id="path24"
       style="fill:none;stroke:#ffffff;stroke-width:1.55999994;stroke-linecap:butt;stroke-linejoin:round;stroke-miterlimit:10;stroke-dasharray:none;stroke-opacity:1"
       d="m 369.84,411.77 c 52.56,0 95.16,-42.61 95.16,-95.16 h -95.16 z" /><path
       id="path26"
       style="fill:#ed7d31;fill-opacity:1;fill-rule:evenodd;stroke:none"
       d="m 465,316.61 c 0,-52.56 -42.6,-95.16 -95.16,-95.16 v 95.16 z" /><path
       id="path28"
       style="fill:none;stroke:#ffffff;stroke-width:1.55999994;stroke-linecap:butt;stroke-linejoin:round;stroke-miterlimit:10;stroke-dasharray:none;stroke-opacity:1"
       d="m 465,316.61 c 0,-52.56 -42.6,-95.16 -95.16,-95.16 v 95.16 z" /><path
       id="path30"
       style="fill:#a9d18e;fill-opacity:1;fill-rule:evenodd;stroke:none"
       d="m 369.84,221.45 c -43.07,0 -80.77,28.93 -91.92,70.53 l 91.92,24.63 z" /><path
       id="path32"
       style="fill:none;stroke:#ffffff;stroke-width:1.55999994;stroke-linecap:butt;stroke-linejoin:round;stroke-miterlimit:10;stroke-dasharray:none;stroke-opacity:1"
       d="m 369.84,221.45 c -43.07,0 -80.77,28.93 -91.92,70.53 l 91.92,24.63 z" /><path
       id="path34"
       style="fill:#ffc000;fill-opacity:1;fill-rule:evenodd;stroke:none"
       d="m 277.92,291.98 c -13.6,50.76 16.53,102.94 67.29,116.55 8.03,2.15 16.32,3.24 24.63,3.24 v -95.16 z" /><path
       id="path36"
       style="fill:none;stroke:#ffffff;stroke-width:1.55999994;stroke-linecap:butt;stroke-linejoin:round;stroke-miterlimit:10;stroke-dasharray:none;stroke-opacity:1"
       d="m 277.92,291.98 c -13.6,50.76 16.53,102.94 67.29,116.55 8.03,2.15 16.32,3.24 24.63,3.24 v -95.16 z" /><g
       id="g152"><g
         clip-path="url(#clipPath158)"
         id="g154"><text
           id="text162"
           style="font-variant:normal;font-weight:normal;font-size:18px;font-family:Calibri;-inkscape-font-specification:Calibri;writing-mode:lr-tb;fill:#000000;fill-opacity:1;fill-rule:nonzero;stroke:none"
           transform="matrix(1,0,0,-1,359.69,432.94)"><tspan
             id="tspan160"
             y="0"
             x="0 9.1199999">24</tspan></text>
</g></g><g
       id="g164"><g
         clip-path="url(#clipPath170)"
         id="g166"><text
           id="text174"
           style="font-variant:normal;font-weight:normal;font-size:18px;font-family:Calibri;-inkscape-font-specification:Calibri;writing-mode:lr-tb;fill:#000000;fill-opacity:1;fill-rule:nonzero;stroke:none"
           transform="matrix(1,0,0,-1,396.67,429.12)"><tspan
             id="tspan172"
             y="0"
             x="0">1</tspan></text>
</g></g><g
       id="g176"><g
         clip-path="url(#clipPath182)"
         id="g178"><text
           id="text186"
           style="font-variant:normal;font-weight:normal;font-size:18px;font-family:Calibri;-inkscape-font-specification:Calibri;writing-mode:lr-tb;fill:#000000;fill-opacity:1;fill-rule:nonzero;stroke:none"
           transform="matrix(1,0,0,-1,468.55,255.34)"><tspan
             id="tspan184"
             y="0"
             x="0">8</tspan></text>
</g></g><g
       id="g188"><g
         clip-path="url(#clipPath194)"
         id="g190"><text
           id="text198"
           style="font-variant:normal;font-weight:normal;font-size:18px;font-family:Calibri;-inkscape-font-specification:Calibri;writing-mode:lr-tb;fill:#000000;fill-opacity:1;fill-rule:nonzero;stroke:none"
           transform="matrix(1,0,0,-1,389.42,195.36)"><tspan
             id="tspan196"
             y="0"
             x="0 9.1199999">11</tspan></text>
</g></g><g
       id="g200"><g
         clip-path="url(#clipPath206)"
         id="g202"><text
           id="text210"
           style="font-variant:normal;font-weight:normal;font-size:18px;font-family:Calibri;-inkscape-font-specification:Calibri;writing-mode:lr-tb;fill:#000000;fill-opacity:1;fill-rule:nonzero;stroke:none"
           transform="matrix(1,0,0,-1,427.01,415.22)"><tspan
             id="tspan208"
             y="0"
             x="0">2</tspan></text>
</g></g><g
       id="g212"><g
         clip-path="url(#clipPath218)"
         id="g214"><text
           id="text222"
           style="font-variant:normal;font-weight:normal;font-size:18.02400017px;font-family:Calibri;-inkscape-font-specification:Calibri;writing-mode:lr-tb;fill:#000000;fill-opacity:1;fill-rule:nonzero;stroke:none"
           transform="matrix(1,0,0,-1,422.4,210.53)"><tspan
             id="tspan220"
             y="0"
             x="0 9.1199684">10</tspan></text>
</g></g><g
       id="g224"><g
         clip-path="url(#clipPath230)"
         id="g226"><text
           id="text234"
           style="font-variant:normal;font-weight:normal;font-size:18px;font-family:Calibri;-inkscape-font-specification:Calibri;writing-mode:lr-tb;fill:#000000;fill-opacity:1;fill-rule:nonzero;stroke:none"
           transform="matrix(1,0,0,-1,451.3,233.09)"><tspan
             id="tspan232"
             y="0"
             x="0">9</tspan></text>
</g></g><g
       id="g236"><g
         clip-path="url(#clipPath242)"
         id="g238"><text
           id="text246"
           style="font-variant:normal;font-weight:normal;font-size:18px;font-family:Calibri;-inkscape-font-specification:Calibri;writing-mode:lr-tb;fill:#000000;fill-opacity:1;fill-rule:nonzero;stroke:none"
           transform="matrix(1,0,0,-1,452.06,392.95)"><tspan
             id="tspan244"
             y="0"
             x="0">3</tspan></text>
</g></g><g
       id="g248"><g
         clip-path="url(#clipPath254)"
         id="g250"><text
           id="text258"
           style="font-variant:normal;font-weight:normal;font-size:18px;font-family:Calibri;-inkscape-font-specification:Calibri;writing-mode:lr-tb;fill:#000000;fill-opacity:1;fill-rule:nonzero;stroke:none"
           transform="matrix(1,0,0,-1,482.81,310.9)"><tspan
             id="tspan256"
             y="0"
             x="0">6</tspan></text>
</g></g><g
       id="g260"><g
         clip-path="url(#clipPath266)"
         id="g262"><text
           id="text270"
           style="font-variant:normal;font-weight:normal;font-size:18px;font-family:Calibri;-inkscape-font-specification:Calibri;writing-mode:lr-tb;fill:#000000;fill-opacity:1;fill-rule:nonzero;stroke:none"
           transform="matrix(1,0,0,-1,469.8,367.97)"><tspan
             id="tspan268"
             y="0"
             x="0">4</tspan></text>
</g></g><g
       id="g272"><g
         clip-path="url(#clipPath278)"
         id="g274"><text
           id="text282"
           style="font-variant:normal;font-weight:normal;font-size:18px;font-family:Calibri;-inkscape-font-specification:Calibri;writing-mode:lr-tb;fill:#000000;fill-opacity:1;fill-rule:nonzero;stroke:none"
           transform="matrix(1,0,0,-1,480,282.1)"><tspan
             id="tspan280"
             y="0"
             x="0">7</tspan></text>
</g></g><g
       id="g284"><g
         clip-path="url(#clipPath290)"
         id="g286"><text
           id="text294"
           style="font-variant:normal;font-weight:normal;font-size:18.02400017px;font-family:Calibri;-inkscape-font-specification:Calibri;writing-mode:lr-tb;fill:#000000;fill-opacity:1;fill-rule:nonzero;stroke:none"
           transform="matrix(1,0,0,-1,480,339.34)"><tspan
             id="tspan292"
             y="0"
             x="0">5</tspan></text>
</g></g><g
       id="g296"><g
         clip-path="url(#clipPath302)"
         id="g298"><text
           id="text306"
           style="font-variant:normal;font-weight:normal;font-size:18px;font-family:Calibri;-inkscape-font-specification:Calibri;writing-mode:lr-tb;fill:#000000;fill-opacity:1;fill-rule:nonzero;stroke:none"
           transform="matrix(1,0,0,-1,359.69,191.78)"><tspan
             id="tspan304"
             y="0"
             x="0 9.1199999">12</tspan></text>
</g></g><g
       id="g308"><g
         clip-path="url(#clipPath314)"
         id="g310"><text
           id="text318"
           style="font-variant:normal;font-weight:normal;font-size:18px;font-family:Calibri;-inkscape-font-specification:Calibri;writing-mode:lr-tb;fill:#000000;fill-opacity:1;fill-rule:nonzero;stroke:none"
           transform="matrix(1,0,0,-1,323.5,195.43)"><tspan
             id="tspan316"
             y="0"
             x="0 9.1199999">13</tspan></text>
</g></g><g
       id="g320"><g
         clip-path="url(#clipPath326)"
         id="g322"><text
           id="text330"
           style="font-variant:normal;font-weight:normal;font-size:18.02400017px;font-family:Calibri;-inkscape-font-specification:Calibri;writing-mode:lr-tb;fill:#000000;fill-opacity:1;fill-rule:nonzero;stroke:none"
           transform="matrix(1,0,0,-1,296.98,210.53)"><tspan
             id="tspan328"
             y="0"
             x="0 9.1199684">14</tspan></text>
</g></g><g
       id="g332"><g
         clip-path="url(#clipPath338)"
         id="g334"><text
           id="text342"
           style="font-variant:normal;font-weight:normal;font-size:18px;font-family:Calibri;-inkscape-font-specification:Calibri;writing-mode:lr-tb;fill:#000000;fill-opacity:1;fill-rule:nonzero;stroke:none"
           transform="matrix(1,0,0,-1,274.8,226.2)"><tspan
             id="tspan340"
             y="0"
             x="0 9.1199999">15</tspan></text>
</g></g><g
       id="g344"><g
         clip-path="url(#clipPath350)"
         id="g346"><text
           id="text354"
           style="font-variant:normal;font-weight:normal;font-size:18px;font-family:Calibri;-inkscape-font-specification:Calibri;writing-mode:lr-tb;fill:#000000;fill-opacity:1;fill-rule:nonzero;stroke:none"
           transform="matrix(1,0,0,-1,252.38,253.1)"><tspan
             id="tspan352"
             y="0"
             x="0 9.1199999">16</tspan></text>
</g></g><g
       id="g356"><g
         clip-path="url(#clipPath362)"
         id="g358"><text
           id="text366"
           style="font-variant:normal;font-weight:normal;font-size:18px;font-family:Calibri;-inkscape-font-specification:Calibri;writing-mode:lr-tb;fill:#000000;fill-opacity:1;fill-rule:nonzero;stroke:none"
           transform="matrix(1,0,0,-1,242.28,279.48)"><tspan
             id="tspan364"
             y="0"
             x="0 9.1199999">17</tspan></text>
</g></g><g
       id="g368"><g
         clip-path="url(#clipPath374)"
         id="g370"><text
           id="text378"
           style="font-variant:normal;font-weight:normal;font-size:18px;font-family:Calibri;-inkscape-font-specification:Calibri;writing-mode:lr-tb;fill:#000000;fill-opacity:1;fill-rule:nonzero;stroke:none"
           transform="matrix(1,0,0,-1,239.14,310.49)"><tspan
             id="tspan376"
             y="0"
             x="0 9.1199999">18</tspan></text>
</g></g><g
       id="g380"><g
         clip-path="url(#clipPath386)"
         id="g382"><text
           id="text390"
           style="font-variant:normal;font-weight:normal;font-size:18px;font-family:Calibri;-inkscape-font-specification:Calibri;writing-mode:lr-tb;fill:#000000;fill-opacity:1;fill-rule:nonzero;stroke:none"
           transform="matrix(1,0,0,-1,241.58,341.28)"><tspan
             id="tspan388"
             y="0"
             x="0 9.1199999">19</tspan></text>
</g></g><g
       id="g392"><g
         clip-path="url(#clipPath398)"
         id="g394"><text
           id="text402"
           style="font-variant:normal;font-weight:normal;font-size:18px;font-family:Calibri;-inkscape-font-specification:Calibri;writing-mode:lr-tb;fill:#000000;fill-opacity:1;fill-rule:nonzero;stroke:none"
           transform="matrix(1,0,0,-1,251.88,371.66)"><tspan
             id="tspan400"
             y="0"
             x="0 9.1199999">20</tspan></text>
</g></g><g
       id="g404"><g
         clip-path="url(#clipPath410)"
         id="g406"><text
           id="text414"
           style="font-variant:normal;font-weight:normal;font-size:18px;font-family:Calibri;-inkscape-font-specification:Calibri;writing-mode:lr-tb;fill:#000000;fill-opacity:1;fill-rule:nonzero;stroke:none"
           transform="matrix(1,0,0,-1,274.56,395.88)"><tspan
             id="tspan412"
             y="0"
             x="0 9.1199999">21</tspan></text>
</g></g><g
       id="g416"><g
         clip-path="url(#clipPath422)"
         id="g418"><text
           id="text426"
           style="font-variant:normal;font-weight:normal;font-size:18px;font-family:Calibri;-inkscape-font-specification:Calibri;writing-mode:lr-tb;fill:#000000;fill-opacity:1;fill-rule:nonzero;stroke:none"
           transform="matrix(1,0,0,-1,299.3,416.38)"><tspan
             id="tspan424"
             y="0"
             x="0 9.1199999">22</tspan></text>
</g></g><g
       id="g428"><g
         clip-path="url(#clipPath434)"
         id="g430"><text
           id="text438"
           style="font-variant:normal;font-weight:normal;font-size:18px;font-family:Calibri;-inkscape-font-specification:Calibri;writing-mode:lr-tb;fill:#000000;fill-opacity:1;fill-rule:nonzero;stroke:none"
           transform="matrix(1,0,0,-1,328.13,427.61)"><tspan
             id="tspan436"
             y="0"
             x="0 9.1199999">23</tspan></text>
</g></g><g
       id="g440"><g
         clip-path="url(#clipPath446)"
         id="g442"><path
           id="path448"
           style="fill:#ffffff;fill-opacity:1;fill-rule:nonzero;stroke:none"
           d="m 405.5,366.86 c -0.09,-0.08 -0.17,-0.14 -0.26,-0.17 -0.09,-0.02 -0.17,-0.03 -0.25,-0.02 -0.09,0.01 -0.16,0.03 -0.23,0.07 -0.08,0.04 -0.14,0.09 -0.19,0.15 l -0.35,0.36 c -0.1,0.12 -0.19,0.23 -0.25,0.34 -0.05,0.1 -0.09,0.23 -0.1,0.36 -0.01,0.14 0,0.29 0.03,0.47 0.04,0.18 0.09,0.39 0.18,0.63 l 2.3,6.97 c 0.12,0.36 0.25,0.74 0.39,1.12 0.14,0.39 0.28,0.76 0.42,1.11 l -0.02,0.01 c -0.29,-0.29 -0.6,-0.6 -0.91,-0.9 -0.32,-0.31 -0.63,-0.61 -0.95,-0.91 l -4.98,-4.73 c -0.03,-0.03 -0.06,-0.04 -0.11,-0.05 -0.04,-0.01 -0.09,0 -0.15,0.03 -0.05,0.03 -0.12,0.07 -0.2,0.13 -0.07,0.06 -0.16,0.14 -0.26,0.25 -0.11,0.11 -0.19,0.2 -0.24,0.28 -0.06,0.08 -0.1,0.15 -0.12,0.2 -0.02,0.06 -0.03,0.11 -0.02,0.15 0.01,0.05 0.03,0.08 0.06,0.11 l 7.61,7.22 c 0.17,0.16 0.34,0.23 0.51,0.2 0.16,-0.02 0.3,-0.1 0.4,-0.21 l 0.52,-0.54 c 0.12,-0.13 0.21,-0.24 0.27,-0.35 0.06,-0.1 0.09,-0.21 0.11,-0.33 0.02,-0.11 0.01,-0.24 -0.02,-0.39 -0.02,-0.15 -0.07,-0.32 -0.14,-0.51 l -1.78,-5.37 c -0.11,-0.33 -0.21,-0.65 -0.32,-0.96 -0.11,-0.31 -0.21,-0.62 -0.32,-0.91 -0.1,-0.3 -0.21,-0.59 -0.31,-0.88 -0.1,-0.29 -0.21,-0.57 -0.31,-0.86 v -0.01 c 0.33,0.33 0.68,0.66 1.04,1.01 0.36,0.35 0.71,0.68 1.04,1 l 4.48,4.25 c 0.03,0.03 0.06,0.04 0.11,0.05 0.04,0.01 0.09,0 0.15,-0.03 0.06,-0.02 0.13,-0.07 0.2,-0.13 0.07,-0.06 0.17,-0.15 0.27,-0.26 0.1,-0.1 0.17,-0.19 0.23,-0.27 0.06,-0.07 0.1,-0.14 0.12,-0.2 0.02,-0.06 0.02,-0.11 0.02,-0.15 -0.01,-0.05 -0.03,-0.08 -0.06,-0.11 z m 2.68,-3.42 c -0.03,-0.03 -0.07,-0.05 -0.11,-0.06 -0.04,0 -0.08,0.01 -0.14,0.03 -0.05,0.02 -0.11,0.06 -0.19,0.12 -0.07,0.06 -0.16,0.15 -0.26,0.25 -0.09,0.1 -0.17,0.19 -0.23,0.27 -0.05,0.07 -0.09,0.14 -0.11,0.2 -0.02,0.05 -0.03,0.1 -0.02,0.14 0.01,0.03 0.03,0.07 0.06,0.1 l 5.74,5.45 c 0.03,0.02 0.07,0.04 0.11,0.05 0.03,0.01 0.08,0 0.14,-0.02 0.05,-0.02 0.12,-0.07 0.19,-0.13 0.07,-0.06 0.16,-0.14 0.26,-0.24 0.1,-0.1 0.17,-0.2 0.23,-0.27 0.06,-0.08 0.09,-0.14 0.11,-0.2 0.02,-0.05 0.03,-0.1 0.02,-0.14 -0.01,-0.04 -0.03,-0.08 -0.06,-0.11 z m 7.79,7.16 c -0.24,-0.23 -0.46,-0.34 -0.63,-0.33 -0.18,0 -0.39,0.13 -0.63,0.38 -0.23,0.25 -0.35,0.46 -0.35,0.64 0,0.17 0.12,0.37 0.37,0.6 0.24,0.24 0.45,0.35 0.63,0.34 0.18,-0.01 0.39,-0.14 0.63,-0.39 0.23,-0.25 0.35,-0.46 0.35,-0.63 0,-0.18 -0.13,-0.38 -0.37,-0.61 z m 4.05,-8.67 c -0.15,-0.14 -0.28,-0.22 -0.38,-0.24 -0.11,-0.02 -0.19,0 -0.25,0.06 l -0.78,0.82 c -0.01,-0.29 -0.08,-0.55 -0.21,-0.79 -0.13,-0.23 -0.29,-0.45 -0.49,-0.64 -0.33,-0.31 -0.68,-0.54 -1.03,-0.67 -0.36,-0.14 -0.72,-0.19 -1.08,-0.16 -0.37,0.03 -0.72,0.14 -1.08,0.32 -0.35,0.18 -0.68,0.44 -0.99,0.77 -0.23,0.24 -0.41,0.49 -0.54,0.76 -0.14,0.27 -0.22,0.5 -0.23,0.71 -0.15,0 -0.3,-0.02 -0.44,-0.06 -0.15,-0.05 -0.28,-0.13 -0.41,-0.25 -0.15,-0.14 -0.21,-0.33 -0.18,-0.56 0.04,-0.23 0.16,-0.46 0.37,-0.7 l 1.36,-1.56 c 0.26,-0.29 0.47,-0.59 0.62,-0.9 0.16,-0.3 0.25,-0.6 0.29,-0.9 0.04,-0.3 0.01,-0.58 -0.09,-0.86 -0.1,-0.28 -0.27,-0.54 -0.52,-0.77 -0.26,-0.25 -0.57,-0.44 -0.91,-0.55 -0.34,-0.12 -0.71,-0.15 -1.11,-0.09 -0.4,0.05 -0.81,0.21 -1.25,0.46 -0.44,0.26 -0.89,0.62 -1.34,1.1 -0.44,0.47 -0.78,0.9 -1.01,1.3 -0.23,0.4 -0.38,0.77 -0.44,1.1 -0.06,0.34 -0.04,0.65 0.06,0.92 0.1,0.27 0.26,0.51 0.48,0.72 0.14,0.14 0.3,0.25 0.46,0.34 0.16,0.09 0.34,0.16 0.52,0.2 0.19,0.04 0.39,0.06 0.59,0.06 0.21,0 0.43,-0.02 0.67,-0.05 -0.09,0.31 -0.11,0.59 -0.04,0.84 0.07,0.26 0.19,0.47 0.38,0.65 0.26,0.24 0.54,0.41 0.85,0.5 0.3,0.09 0.61,0.13 0.92,0.12 0.03,0.28 0.11,0.56 0.24,0.82 0.12,0.26 0.32,0.53 0.6,0.8 0.33,0.31 0.68,0.53 1.04,0.67 0.37,0.13 0.73,0.19 1.09,0.16 0.37,-0.03 0.73,-0.13 1.08,-0.31 0.36,-0.19 0.69,-0.44 1,-0.76 0.16,-0.18 0.31,-0.35 0.43,-0.52 0.13,-0.17 0.23,-0.33 0.32,-0.5 l 1.65,-1.73 c 0.07,-0.08 0.08,-0.16 0.05,-0.27 -0.04,-0.1 -0.13,-0.22 -0.27,-0.36 z m -3.07,0.22 c 0.39,0.37 0.59,0.76 0.61,1.19 0.01,0.42 -0.17,0.83 -0.54,1.22 -0.2,0.21 -0.4,0.35 -0.61,0.44 -0.21,0.08 -0.43,0.12 -0.64,0.11 -0.21,-0.02 -0.42,-0.07 -0.62,-0.17 -0.2,-0.1 -0.39,-0.23 -0.56,-0.39 -0.38,-0.36 -0.57,-0.75 -0.59,-1.17 -0.01,-0.42 0.17,-0.82 0.53,-1.21 0.2,-0.21 0.41,-0.36 0.62,-0.45 0.21,-0.09 0.42,-0.13 0.63,-0.12 0.21,0.02 0.42,0.07 0.62,0.17 0.2,0.09 0.38,0.22 0.55,0.38 z m -4.05,-4.85 c 0.25,0.24 0.34,0.52 0.29,0.85 -0.06,0.33 -0.25,0.67 -0.57,1.02 l -1.36,1.53 c -0.23,0.04 -0.44,0.05 -0.62,0.05 -0.18,0 -0.33,-0.02 -0.47,-0.05 -0.13,-0.03 -0.25,-0.08 -0.36,-0.14 -0.1,-0.06 -0.2,-0.14 -0.28,-0.22 -0.28,-0.26 -0.36,-0.6 -0.23,-1.02 0.12,-0.41 0.42,-0.87 0.9,-1.37 0.3,-0.32 0.58,-0.56 0.85,-0.72 0.26,-0.15 0.51,-0.25 0.74,-0.28 0.22,-0.04 0.43,-0.02 0.62,0.05 0.18,0.06 0.35,0.17 0.49,0.3 z m 7.65,-6.89 c -0.04,-0.03 -0.07,-0.05 -0.11,-0.05 -0.04,-0.01 -0.09,0 -0.14,0.02 -0.06,0.02 -0.12,0.06 -0.19,0.12 -0.08,0.06 -0.16,0.14 -0.26,0.25 -0.1,0.1 -0.18,0.19 -0.23,0.27 -0.06,0.08 -0.1,0.14 -0.12,0.2 -0.02,0.05 -0.02,0.1 -0.01,0.14 0,0.04 0.02,0.07 0.06,0.1 l 3.36,3.19 c 0.32,0.31 0.56,0.59 0.72,0.83 0.15,0.24 0.25,0.48 0.3,0.71 0.05,0.24 0.04,0.47 -0.03,0.7 -0.07,0.22 -0.2,0.44 -0.4,0.64 -0.25,0.27 -0.59,0.44 -1.03,0.53 -0.43,0.08 -0.97,0.1 -1.6,0.05 l -4.01,-3.81 c -0.04,-0.03 -0.08,-0.05 -0.11,-0.06 -0.04,0 -0.09,0.01 -0.14,0.03 -0.06,0.02 -0.12,0.06 -0.19,0.12 -0.08,0.06 -0.16,0.15 -0.26,0.25 -0.1,0.1 -0.18,0.19 -0.23,0.27 -0.06,0.07 -0.1,0.14 -0.12,0.2 -0.02,0.05 -0.03,0.1 -0.02,0.14 0.01,0.04 0.03,0.07 0.07,0.1 l 8.51,8.08 c 0.04,0.04 0.08,0.06 0.11,0.07 0.04,0.01 0.09,0 0.15,-0.03 0.05,-0.02 0.12,-0.06 0.19,-0.12 0.07,-0.06 0.16,-0.14 0.25,-0.24 0.11,-0.11 0.18,-0.2 0.24,-0.28 0.06,-0.07 0.09,-0.14 0.11,-0.19 0.02,-0.06 0.03,-0.11 0.02,-0.15 -0.01,-0.04 -0.03,-0.07 -0.07,-0.11 l -3.43,-3.26 c 0.6,0 1.13,-0.08 1.57,-0.24 0.45,-0.15 0.82,-0.39 1.11,-0.7 0.37,-0.38 0.61,-0.76 0.72,-1.15 0.12,-0.38 0.15,-0.76 0.09,-1.13 -0.07,-0.36 -0.21,-0.72 -0.44,-1.07 -0.22,-0.34 -0.54,-0.71 -0.95,-1.1 z m 5,-4.43 c -0.12,-0.12 -0.23,-0.2 -0.32,-0.25 -0.08,-0.06 -0.16,-0.08 -0.23,-0.08 -0.06,0 -0.14,0.02 -0.24,0.06 -0.09,0.04 -0.19,0.1 -0.29,0.17 -0.1,0.07 -0.21,0.14 -0.31,0.23 -0.11,0.08 -0.21,0.18 -0.3,0.27 -0.28,0.3 -0.49,0.59 -0.61,0.88 -0.12,0.29 -0.17,0.57 -0.14,0.86 0.03,0.29 0.14,0.58 0.33,0.87 0.18,0.3 0.44,0.6 0.77,0.92 l 3.36,3.18 -0.77,0.8 c -0.06,0.06 -0.07,0.15 -0.04,0.25 0.03,0.1 0.12,0.23 0.28,0.37 0.08,0.08 0.15,0.14 0.22,0.18 0.06,0.04 0.12,0.07 0.17,0.09 0.06,0.02 0.1,0.02 0.14,0 0.04,-0.01 0.08,-0.03 0.11,-0.07 l 0.76,-0.79 1.36,1.29 c 0.03,0.03 0.07,0.05 0.11,0.06 0.04,0.01 0.09,0 0.14,-0.02 0.06,-0.02 0.13,-0.07 0.2,-0.13 0.07,-0.06 0.16,-0.14 0.25,-0.24 0.1,-0.1 0.18,-0.2 0.24,-0.27 0.06,-0.08 0.09,-0.14 0.11,-0.2 0.02,-0.06 0.02,-0.11 0.01,-0.15 -0.01,-0.04 -0.03,-0.07 -0.06,-0.1 l -1.36,-1.3 1.4,-1.47 c 0.03,-0.03 0.05,-0.07 0.06,-0.11 0.01,-0.04 0,-0.08 -0.02,-0.14 -0.01,-0.05 -0.05,-0.11 -0.09,-0.17 -0.05,-0.06 -0.11,-0.13 -0.19,-0.21 -0.16,-0.14 -0.29,-0.23 -0.39,-0.25 -0.11,-0.03 -0.19,-0.01 -0.25,0.05 l -1.4,1.48 -3.2,-3.04 c -0.39,-0.38 -0.63,-0.72 -0.73,-1.03 -0.09,-0.31 0.01,-0.61 0.3,-0.91 0.09,-0.1 0.18,-0.18 0.27,-0.24 0.1,-0.05 0.18,-0.1 0.26,-0.14 0.08,-0.04 0.15,-0.07 0.2,-0.1 0.06,-0.02 0.11,-0.05 0.14,-0.09 0.02,-0.02 0.04,-0.04 0.04,-0.07 0.01,-0.03 0.01,-0.06 -0.01,-0.1 -0.02,-0.04 -0.06,-0.09 -0.1,-0.15 -0.04,-0.05 -0.1,-0.12 -0.18,-0.19 z" /></g></g><g
       id="g450"><g
         clip-path="url(#clipPath456)"
         id="g452"><path
           id="path458"
           style="fill:#ffffff;fill-opacity:1;fill-rule:nonzero;stroke:none"
           d="m 424.15,286.64 c -0.03,0.03 -0.05,0.07 -0.06,0.11 -0.01,0.04 0,0.09 0.03,0.15 0.03,0.06 0.07,0.13 0.13,0.2 0.05,0.08 0.13,0.17 0.24,0.28 0.1,0.1 0.19,0.17 0.27,0.23 0.08,0.07 0.15,0.11 0.2,0.13 0.06,0.03 0.11,0.04 0.15,0.03 0.04,-0.01 0.08,-0.03 0.11,-0.06 l 7.02,-6.99 0.01,0.01 -4.22,9.86 c -0.02,0.04 -0.02,0.09 -0.02,0.13 0,0.04 0.02,0.09 0.05,0.15 0.02,0.06 0.07,0.12 0.12,0.19 0.05,0.07 0.12,0.14 0.2,0.22 0.09,0.09 0.17,0.16 0.24,0.22 0.07,0.05 0.13,0.09 0.19,0.12 0.05,0.02 0.1,0.04 0.15,0.04 0.04,0 0.08,0 0.11,-0.02 l 9.76,-4.31 v 0.01 l -7.01,6.99 c -0.04,0.03 -0.06,0.07 -0.07,0.11 0,0.04 0.01,0.09 0.03,0.15 0.03,0.06 0.08,0.13 0.13,0.2 0.06,0.08 0.14,0.18 0.25,0.28 0.1,0.1 0.19,0.19 0.27,0.24 0.08,0.06 0.15,0.1 0.2,0.13 0.06,0.03 0.1,0.03 0.14,0.02 0.04,-0.01 0.08,-0.03 0.11,-0.06 l 7.41,-7.38 c 0.18,-0.18 0.25,-0.35 0.24,-0.51 -0.02,-0.17 -0.09,-0.31 -0.2,-0.43 l -0.66,-0.65 c -0.13,-0.14 -0.26,-0.24 -0.39,-0.32 -0.12,-0.08 -0.25,-0.13 -0.38,-0.15 -0.13,-0.02 -0.26,-0.01 -0.39,0.02 -0.14,0.03 -0.28,0.08 -0.43,0.16 l -8.13,3.51 -0.03,-0.04 3.43,-8.19 c 0.08,-0.17 0.13,-0.32 0.16,-0.47 0.04,-0.14 0.05,-0.27 0.03,-0.38 -0.01,-0.12 -0.05,-0.23 -0.1,-0.33 -0.06,-0.11 -0.14,-0.21 -0.25,-0.32 l -0.68,-0.68 c -0.07,-0.07 -0.13,-0.12 -0.21,-0.16 -0.08,-0.04 -0.15,-0.06 -0.23,-0.06 -0.08,0 -0.16,0.02 -0.25,0.06 -0.08,0.03 -0.17,0.09 -0.26,0.18 z m -4.33,-10.06 c -0.45,0.45 -0.81,0.93 -1.08,1.44 -0.26,0.5 -0.41,1.01 -0.45,1.52 -0.04,0.52 0.04,1.03 0.24,1.55 0.2,0.51 0.54,1.01 1.01,1.48 0.46,0.46 0.93,0.79 1.4,1 0.48,0.21 0.97,0.29 1.46,0.26 0.48,-0.03 0.97,-0.18 1.46,-0.44 0.48,-0.26 0.96,-0.62 1.43,-1.1 0.46,-0.45 0.82,-0.93 1.09,-1.43 0.26,-0.5 0.42,-1.01 0.46,-1.52 0.04,-0.52 -0.04,-1.03 -0.25,-1.54 -0.2,-0.51 -0.54,-1.01 -1.01,-1.48 -0.46,-0.46 -0.93,-0.8 -1.41,-1 -0.48,-0.21 -0.96,-0.3 -1.45,-0.26 -0.49,0.03 -0.98,0.17 -1.46,0.43 -0.49,0.26 -0.97,0.62 -1.44,1.09 z m 1,1.13 c 0.3,-0.3 0.61,-0.56 0.94,-0.77 0.32,-0.21 0.65,-0.35 0.99,-0.43 0.33,-0.07 0.67,-0.05 1.01,0.05 0.33,0.1 0.67,0.32 1,0.65 0.3,0.31 0.51,0.62 0.62,0.95 0.11,0.33 0.14,0.66 0.09,1 -0.06,0.34 -0.19,0.68 -0.39,1.02 -0.2,0.33 -0.46,0.66 -0.78,0.98 -0.31,0.31 -0.62,0.57 -0.95,0.78 -0.32,0.21 -0.65,0.35 -0.99,0.42 -0.33,0.07 -0.67,0.05 -1,-0.05 -0.34,-0.11 -0.68,-0.32 -1.01,-0.66 -0.3,-0.3 -0.51,-0.61 -0.62,-0.94 -0.11,-0.33 -0.14,-0.66 -0.09,-1 0.05,-0.34 0.18,-0.67 0.39,-1.01 0.2,-0.34 0.46,-0.67 0.79,-0.99 z m -3.39,-8.27 c -0.09,0.09 -0.16,0.17 -0.22,0.23 -0.06,0.07 -0.1,0.13 -0.12,0.17 -0.03,0.05 -0.04,0.09 -0.04,0.13 0,0.04 0.02,0.07 0.05,0.11 0.03,0.03 0.08,0.06 0.15,0.09 0.07,0.03 0.14,0.06 0.22,0.11 0.08,0.04 0.16,0.09 0.25,0.15 0.09,0.05 0.18,0.13 0.27,0.21 0.1,0.11 0.18,0.23 0.24,0.37 0.06,0.14 0.1,0.31 0.11,0.52 0.01,0.2 0,0.45 -0.04,0.72 -0.03,0.28 -0.09,0.61 -0.18,0.98 l -3.68,3.67 c -0.04,0.03 -0.06,0.07 -0.06,0.11 -0.01,0.04 0,0.09 0.02,0.14 0.02,0.05 0.06,0.12 0.12,0.19 0.05,0.08 0.13,0.17 0.24,0.27 0.1,0.1 0.18,0.18 0.26,0.24 0.07,0.06 0.14,0.1 0.19,0.12 0.06,0.02 0.11,0.03 0.14,0.02 0.04,-0.01 0.08,-0.03 0.11,-0.06 l 5.6,-5.58 c 0.04,-0.04 0.06,-0.07 0.07,-0.11 0.01,-0.03 0,-0.08 -0.01,-0.13 -0.02,-0.06 -0.06,-0.12 -0.11,-0.18 -0.05,-0.07 -0.12,-0.15 -0.22,-0.24 -0.09,-0.1 -0.17,-0.17 -0.24,-0.22 -0.06,-0.06 -0.12,-0.09 -0.17,-0.1 -0.05,-0.02 -0.1,-0.02 -0.14,-0.01 -0.03,0 -0.07,0.02 -0.1,0.06 l -0.82,0.81 c 0.07,-0.38 0.11,-0.7 0.12,-0.98 0.01,-0.27 -0.01,-0.51 -0.05,-0.71 -0.04,-0.2 -0.1,-0.38 -0.19,-0.53 -0.08,-0.15 -0.19,-0.28 -0.31,-0.4 -0.05,-0.06 -0.12,-0.11 -0.19,-0.18 -0.07,-0.06 -0.16,-0.12 -0.25,-0.18 -0.09,-0.06 -0.18,-0.1 -0.26,-0.14 -0.08,-0.04 -0.14,-0.07 -0.19,-0.07 -0.04,0 -0.08,0 -0.1,0.01 -0.03,0.01 -0.06,0.03 -0.1,0.05 -0.03,0.02 -0.08,0.06 -0.14,0.11 -0.06,0.06 -0.13,0.13 -0.23,0.23 z m -11.18,-0.76 c -0.04,0.04 -0.06,0.07 -0.06,0.11 -0.01,0.04 0,0.09 0.02,0.14 0.02,0.06 0.06,0.12 0.12,0.2 0.06,0.07 0.13,0.16 0.23,0.26 0.11,0.1 0.2,0.18 0.27,0.24 0.07,0.06 0.14,0.1 0.19,0.12 0.06,0.02 0.1,0.03 0.14,0.02 0.04,-0.01 0.08,-0.03 0.11,-0.06 l 3.28,-3.27 c 0.32,-0.32 0.6,-0.55 0.85,-0.69 0.24,-0.15 0.48,-0.24 0.72,-0.29 0.24,-0.04 0.47,-0.03 0.69,0.05 0.23,0.08 0.44,0.22 0.64,0.41 0.26,0.26 0.42,0.61 0.49,1.05 0.08,0.44 0.08,0.98 0.01,1.61 l -3.92,3.9 c -0.03,0.03 -0.05,0.07 -0.06,0.11 0,0.04 0,0.09 0.02,0.14 0.02,0.05 0.06,0.12 0.12,0.19 0.06,0.08 0.14,0.17 0.24,0.27 0.1,0.1 0.19,0.18 0.26,0.24 0.08,0.06 0.14,0.1 0.2,0.12 0.06,0.02 0.1,0.03 0.14,0.02 0.04,-0.01 0.07,-0.03 0.11,-0.06 l 5.6,-5.58 c 0.03,-0.04 0.05,-0.07 0.06,-0.11 0.01,-0.03 0.01,-0.08 -0.01,-0.13 -0.02,-0.06 -0.05,-0.12 -0.1,-0.18 -0.06,-0.07 -0.13,-0.15 -0.22,-0.24 -0.1,-0.1 -0.17,-0.17 -0.24,-0.22 -0.07,-0.06 -0.13,-0.09 -0.18,-0.1 -0.05,-0.02 -0.09,-0.02 -0.13,-0.01 -0.04,0 -0.07,0.02 -0.11,0.06 l -0.74,0.74 c 0.04,-0.67 -0.01,-1.24 -0.16,-1.72 -0.15,-0.48 -0.38,-0.87 -0.7,-1.19 -0.37,-0.38 -0.75,-0.63 -1.13,-0.76 -0.38,-0.13 -0.76,-0.16 -1.13,-0.11 -0.37,0.05 -0.73,0.19 -1.08,0.4 -0.35,0.22 -0.73,0.52 -1.13,0.92 z m -2.91,-2.91 c -0.03,0.03 -0.05,0.07 -0.06,0.11 -0.01,0.03 0,0.08 0.02,0.14 0.02,0.05 0.06,0.11 0.12,0.19 0.06,0.07 0.14,0.16 0.24,0.27 0.1,0.1 0.19,0.17 0.26,0.23 0.08,0.06 0.14,0.1 0.2,0.12 0.05,0.03 0.1,0.03 0.14,0.03 0.04,-0.01 0.07,-0.03 0.1,-0.07 l 5.61,-5.58 c 0.03,-0.03 0.05,-0.06 0.06,-0.1 0.01,-0.04 0,-0.09 -0.02,-0.14 -0.03,-0.06 -0.07,-0.13 -0.12,-0.2 -0.06,-0.08 -0.14,-0.16 -0.24,-0.26 -0.1,-0.11 -0.19,-0.19 -0.27,-0.25 -0.07,-0.05 -0.13,-0.09 -0.19,-0.11 -0.05,-0.02 -0.1,-0.03 -0.14,-0.02 -0.04,0.01 -0.08,0.02 -0.11,0.05 z m 7.38,-7.59 c -0.24,0.24 -0.36,0.45 -0.36,0.63 0.01,0.17 0.13,0.39 0.37,0.63 0.24,0.24 0.45,0.36 0.62,0.37 0.18,0 0.38,-0.11 0.62,-0.35 0.24,-0.24 0.36,-0.45 0.36,-0.63 -0.01,-0.17 -0.13,-0.39 -0.38,-0.63 -0.24,-0.24 -0.44,-0.36 -0.62,-0.37 -0.17,0 -0.38,0.11 -0.61,0.35 z m -14.04,0.9 c -0.04,0.03 -0.06,0.07 -0.06,0.11 -0.01,0.04 0,0.08 0.02,0.14 0.02,0.05 0.06,0.12 0.12,0.19 0.05,0.08 0.13,0.16 0.23,0.26 0.1,0.11 0.19,0.19 0.27,0.25 0.07,0.05 0.14,0.09 0.19,0.11 0.05,0.02 0.1,0.03 0.14,0.03 0.04,-0.01 0.08,-0.03 0.11,-0.06 l 3.28,-3.27 c 0.32,-0.32 0.6,-0.55 0.85,-0.7 0.24,-0.14 0.48,-0.24 0.72,-0.28 0.23,-0.05 0.46,-0.03 0.69,0.05 0.23,0.07 0.44,0.21 0.64,0.41 0.25,0.26 0.42,0.61 0.49,1.04 0.08,0.44 0.08,0.98 0.01,1.61 l -3.92,3.91 c -0.03,0.03 -0.05,0.07 -0.06,0.11 -0.01,0.03 0,0.08 0.02,0.14 0.02,0.05 0.06,0.11 0.12,0.19 0.06,0.07 0.14,0.16 0.24,0.27 0.1,0.1 0.19,0.17 0.26,0.23 0.08,0.06 0.14,0.1 0.2,0.12 0.05,0.03 0.1,0.03 0.14,0.03 0.04,-0.01 0.07,-0.03 0.1,-0.07 l 5.61,-5.58 c 0.03,-0.03 0.05,-0.07 0.06,-0.1 0.01,-0.04 0.01,-0.08 -0.01,-0.14 -0.02,-0.05 -0.05,-0.11 -0.11,-0.18 -0.05,-0.06 -0.12,-0.14 -0.22,-0.24 -0.09,-0.09 -0.17,-0.16 -0.23,-0.22 -0.07,-0.05 -0.13,-0.08 -0.18,-0.1 -0.05,-0.01 -0.09,-0.02 -0.13,-0.01 -0.04,0.01 -0.07,0.03 -0.11,0.06 l -0.74,0.74 c 0.04,-0.67 -0.02,-1.24 -0.16,-1.71 -0.15,-0.48 -0.39,-0.88 -0.7,-1.2 -0.38,-0.37 -0.75,-0.62 -1.13,-0.75 -0.38,-0.13 -0.76,-0.17 -1.13,-0.12 -0.37,0.06 -0.73,0.19 -1.08,0.41 -0.35,0.21 -0.73,0.52 -1.13,0.91 z m -1.21,-11.9 c -0.14,0.14 -0.23,0.27 -0.25,0.37 -0.03,0.1 -0.01,0.19 0.05,0.25 l 0.8,0.8 c -0.29,0.01 -0.56,0.07 -0.79,0.19 -0.24,0.12 -0.46,0.28 -0.65,0.48 -0.33,0.32 -0.56,0.65 -0.71,1.01 -0.14,0.35 -0.21,0.71 -0.19,1.07 0.02,0.37 0.12,0.73 0.29,1.08 0.18,0.36 0.42,0.7 0.75,1.02 0.22,0.23 0.47,0.42 0.74,0.56 0.26,0.15 0.49,0.23 0.7,0.25 0,0.15 -0.03,0.3 -0.07,0.44 -0.05,0.15 -0.14,0.28 -0.26,0.4 -0.15,0.15 -0.34,0.2 -0.57,0.16 -0.23,-0.04 -0.46,-0.17 -0.69,-0.38 l -1.52,-1.4 c -0.28,-0.27 -0.58,-0.49 -0.88,-0.65 -0.3,-0.17 -0.59,-0.27 -0.89,-0.32 -0.3,-0.04 -0.59,-0.02 -0.87,0.07 -0.27,0.09 -0.54,0.25 -0.78,0.5 -0.26,0.26 -0.45,0.55 -0.58,0.89 -0.12,0.34 -0.16,0.71 -0.12,1.11 0.05,0.4 0.19,0.82 0.43,1.26 0.25,0.45 0.6,0.91 1.07,1.38 0.45,0.45 0.87,0.8 1.26,1.04 0.4,0.24 0.76,0.39 1.1,0.46 0.33,0.08 0.64,0.06 0.91,-0.03 0.28,-0.09 0.52,-0.24 0.74,-0.46 0.14,-0.14 0.25,-0.29 0.35,-0.45 0.1,-0.16 0.17,-0.33 0.21,-0.52 0.05,-0.18 0.08,-0.38 0.08,-0.58 0.01,-0.21 0,-0.43 -0.03,-0.67 0.3,0.1 0.58,0.12 0.84,0.06 0.25,-0.06 0.47,-0.18 0.66,-0.36 0.25,-0.25 0.42,-0.53 0.52,-0.83 0.1,-0.3 0.15,-0.61 0.15,-0.92 0.28,-0.03 0.56,-0.1 0.82,-0.21 0.27,-0.12 0.54,-0.32 0.82,-0.59 0.32,-0.32 0.55,-0.66 0.69,-1.02 0.15,-0.36 0.21,-0.72 0.2,-1.09 -0.02,-0.36 -0.11,-0.72 -0.29,-1.08 -0.17,-0.36 -0.41,-0.7 -0.73,-1.02 -0.17,-0.17 -0.33,-0.32 -0.5,-0.45 -0.17,-0.12 -0.33,-0.24 -0.49,-0.33 l -1.69,-1.7 c -0.07,-0.07 -0.16,-0.09 -0.26,-0.05 -0.1,0.03 -0.22,0.12 -0.37,0.26 z m 0.13,3.07 c 0.38,-0.38 0.78,-0.57 1.21,-0.57 0.42,0 0.82,0.19 1.21,0.57 0.2,0.2 0.33,0.41 0.42,0.62 0.08,0.22 0.11,0.43 0.09,0.64 -0.02,0.22 -0.08,0.42 -0.19,0.62 -0.1,0.2 -0.24,0.38 -0.4,0.55 -0.37,0.36 -0.77,0.55 -1.19,0.55 -0.42,0 -0.82,-0.19 -1.19,-0.56 -0.2,-0.21 -0.35,-0.42 -0.43,-0.63 -0.09,-0.21 -0.12,-0.43 -0.1,-0.64 0.01,-0.21 0.07,-0.41 0.17,-0.61 0.11,-0.19 0.24,-0.37 0.4,-0.54 z m -4.95,3.91 c 0.24,-0.24 0.52,-0.32 0.85,-0.26 0.32,0.07 0.66,0.27 1,0.59 l 1.5,1.41 c 0.03,0.23 0.04,0.44 0.03,0.62 -0.01,0.17 -0.03,0.33 -0.07,0.47 -0.03,0.13 -0.08,0.25 -0.15,0.35 -0.06,0.1 -0.14,0.2 -0.22,0.28 -0.27,0.27 -0.62,0.34 -1.03,0.2 -0.41,-0.13 -0.86,-0.45 -1.35,-0.94 -0.31,-0.31 -0.54,-0.6 -0.69,-0.87 -0.14,-0.27 -0.23,-0.51 -0.26,-0.74 -0.03,-0.23 -0.01,-0.44 0.06,-0.62 0.08,-0.19 0.18,-0.35 0.33,-0.49 z" /></g></g><g
       id="g460"><g
         clip-path="url(#clipPath466)"
         id="g462"><path
           id="path468"
           style="fill:#ffffff;fill-opacity:1;fill-rule:nonzero;stroke:none"
           d="m 354.19,252.39 c 0.03,0.14 0.08,0.24 0.12,0.3 0.04,0.07 0.1,0.1 0.16,0.11 0.06,0.01 0.14,-0.02 0.23,-0.07 0.1,-0.06 0.22,-0.14 0.37,-0.24 0.14,-0.11 0.26,-0.2 0.34,-0.27 0.09,-0.07 0.14,-0.13 0.18,-0.17 0.03,-0.05 0.05,-0.1 0.05,-0.14 0,-0.05 -0.01,-0.1 -0.02,-0.16 l -0.82,-2.81 3.84,-2.76 2.35,1.68 c 0.05,0.03 0.09,0.05 0.14,0.07 0.04,0.01 0.1,0.01 0.16,0 0.06,-0.01 0.13,-0.04 0.22,-0.09 0.09,-0.05 0.21,-0.13 0.34,-0.22 0.14,-0.1 0.25,-0.19 0.33,-0.26 0.07,-0.08 0.12,-0.14 0.13,-0.2 0.01,-0.06 0,-0.12 -0.05,-0.19 -0.05,-0.06 -0.13,-0.13 -0.25,-0.21 l -9.26,-6.35 c -0.05,-0.04 -0.11,-0.07 -0.16,-0.08 -0.06,-0.01 -0.12,0 -0.19,0.02 -0.08,0.03 -0.16,0.07 -0.26,0.13 -0.1,0.06 -0.22,0.14 -0.36,0.24 -0.15,0.11 -0.28,0.2 -0.37,0.28 -0.1,0.08 -0.17,0.15 -0.22,0.22 -0.05,0.06 -0.07,0.12 -0.08,0.18 -0.01,0.06 0,0.12 0.01,0.19 z m -1.46,-10.43 v 0 l 4.9,3.46 -3.21,2.31 z m -9.81,5.18 c 0.06,0.09 0.12,0.16 0.17,0.2 0.05,0.05 0.09,0.09 0.12,0.11 0.04,0.03 0.07,0.04 0.1,0.04 0.03,0 0.05,-0.02 0.08,-0.04 0.04,-0.02 0.07,-0.06 0.1,-0.12 0.04,-0.05 0.08,-0.12 0.14,-0.2 0.05,-0.08 0.12,-0.16 0.2,-0.25 0.08,-0.09 0.18,-0.19 0.31,-0.28 0.18,-0.13 0.35,-0.2 0.51,-0.24 0.17,-0.03 0.33,-0.01 0.5,0.06 0.16,0.06 0.33,0.18 0.5,0.35 0.17,0.17 0.36,0.39 0.55,0.67 l 0.51,0.7 -1.44,1.03 c -0.04,0.02 -0.06,0.06 -0.08,0.09 -0.01,0.04 -0.01,0.08 -0.01,0.14 0.01,0.05 0.03,0.12 0.06,0.19 0.04,0.07 0.08,0.15 0.15,0.24 0.12,0.17 0.23,0.28 0.33,0.32 0.1,0.05 0.18,0.05 0.25,0 l 1.44,-1.04 4.04,5.64 c 0.03,0.04 0.06,0.06 0.1,0.07 0.04,0.02 0.09,0.02 0.15,0 0.06,-0.01 0.13,-0.04 0.21,-0.09 0.08,-0.04 0.18,-0.1 0.29,-0.19 0.12,-0.08 0.21,-0.15 0.28,-0.22 0.07,-0.06 0.12,-0.12 0.15,-0.17 0.03,-0.05 0.05,-0.1 0.05,-0.14 0,-0.04 -0.01,-0.08 -0.04,-0.11 l -4.05,-5.64 0.91,-0.65 c 0.08,-0.05 0.11,-0.13 0.09,-0.23 -0.02,-0.11 -0.09,-0.25 -0.21,-0.42 -0.06,-0.09 -0.12,-0.16 -0.18,-0.21 -0.05,-0.06 -0.1,-0.1 -0.15,-0.13 -0.05,-0.02 -0.09,-0.04 -0.13,-0.03 -0.04,0 -0.08,0.02 -0.12,0.04 l -0.91,0.66 -0.48,-0.67 c -0.32,-0.45 -0.63,-0.8 -0.95,-1.06 -0.31,-0.26 -0.63,-0.43 -0.95,-0.52 -0.31,-0.08 -0.64,-0.07 -0.97,0.01 -0.33,0.09 -0.67,0.26 -1.02,0.52 -0.17,0.12 -0.32,0.25 -0.45,0.39 -0.14,0.15 -0.23,0.27 -0.29,0.36 -0.06,0.1 -0.1,0.17 -0.11,0.22 -0.01,0.05 0,0.11 0.01,0.16 0.01,0.06 0.04,0.13 0.08,0.2 0.04,0.07 0.09,0.15 0.16,0.24 z m 1.86,11.68 c 0.1,0.14 0.19,0.24 0.27,0.31 0.07,0.07 0.14,0.11 0.21,0.12 0.07,0.01 0.15,0 0.25,-0.02 0.1,-0.02 0.21,-0.05 0.32,-0.1 0.11,-0.05 0.23,-0.11 0.35,-0.17 0.12,-0.07 0.23,-0.14 0.34,-0.22 0.33,-0.24 0.59,-0.48 0.76,-0.74 0.18,-0.26 0.28,-0.54 0.3,-0.82 0.03,-0.29 -0.03,-0.6 -0.15,-0.92 -0.13,-0.32 -0.33,-0.67 -0.59,-1.04 l -2.7,-3.76 0.9,-0.64 c 0.07,-0.05 0.1,-0.13 0.09,-0.24 -0.01,-0.11 -0.08,-0.25 -0.2,-0.42 -0.07,-0.09 -0.13,-0.16 -0.19,-0.21 -0.05,-0.06 -0.11,-0.1 -0.15,-0.12 -0.05,-0.03 -0.1,-0.04 -0.14,-0.04 -0.04,0.01 -0.08,0.03 -0.12,0.05 l -0.89,0.64 -1.1,-1.52 c -0.02,-0.04 -0.06,-0.06 -0.09,-0.08 -0.04,-0.01 -0.09,-0.02 -0.15,-0.01 -0.06,0.01 -0.13,0.04 -0.21,0.09 -0.09,0.04 -0.19,0.11 -0.3,0.19 -0.12,0.08 -0.21,0.16 -0.28,0.22 -0.07,0.07 -0.12,0.13 -0.15,0.18 -0.03,0.05 -0.04,0.1 -0.04,0.14 0,0.04 0.02,0.08 0.04,0.11 l 1.1,1.53 -1.65,1.18 c -0.04,0.03 -0.07,0.06 -0.08,0.1 -0.02,0.04 -0.02,0.09 -0.02,0.14 0.01,0.06 0.03,0.12 0.07,0.19 0.03,0.07 0.08,0.15 0.15,0.24 0.12,0.17 0.23,0.28 0.33,0.32 0.1,0.05 0.18,0.04 0.25,-0.01 l 1.65,-1.18 2.57,3.58 c 0.32,0.45 0.5,0.83 0.53,1.15 0.03,0.32 -0.12,0.6 -0.46,0.84 -0.11,0.08 -0.22,0.14 -0.32,0.18 -0.1,0.04 -0.19,0.07 -0.27,0.1 -0.09,0.02 -0.16,0.04 -0.22,0.05 -0.07,0.01 -0.12,0.03 -0.16,0.06 -0.02,0.02 -0.04,0.04 -0.05,0.07 -0.01,0.02 -0.01,0.06 0,0.1 0.01,0.04 0.03,0.1 0.06,0.16 0.03,0.06 0.08,0.14 0.14,0.22 z m -8.99,1.88 c 0.14,0.19 0.28,0.29 0.43,0.3 0.15,0.01 0.28,-0.03 0.4,-0.11 l 4.23,-3.04 c 0.26,0.35 0.45,0.7 0.59,1.04 0.13,0.34 0.19,0.67 0.17,0.99 -0.02,0.33 -0.13,0.64 -0.32,0.94 -0.19,0.3 -0.48,0.59 -0.86,0.87 -0.31,0.22 -0.6,0.39 -0.87,0.51 -0.28,0.13 -0.53,0.22 -0.75,0.28 -0.21,0.06 -0.4,0.11 -0.55,0.14 -0.14,0.03 -0.25,0.07 -0.31,0.11 -0.03,0.02 -0.05,0.05 -0.07,0.09 -0.01,0.04 -0.01,0.07 0,0.12 0.01,0.04 0.03,0.1 0.06,0.16 0.04,0.07 0.09,0.14 0.15,0.23 0.04,0.06 0.08,0.11 0.12,0.15 0.04,0.04 0.07,0.08 0.11,0.11 0.03,0.03 0.06,0.05 0.1,0.07 0.04,0.02 0.08,0.03 0.12,0.04 0.05,0 0.16,-0.01 0.33,-0.04 0.17,-0.03 0.38,-0.1 0.62,-0.18 0.25,-0.09 0.52,-0.21 0.83,-0.36 0.3,-0.15 0.6,-0.33 0.9,-0.55 0.53,-0.38 0.94,-0.79 1.23,-1.22 0.3,-0.43 0.47,-0.89 0.54,-1.38 0.06,-0.48 0,-0.99 -0.18,-1.53 -0.17,-0.54 -0.47,-1.1 -0.89,-1.68 -0.39,-0.55 -0.82,-0.99 -1.28,-1.33 -0.46,-0.34 -0.93,-0.56 -1.42,-0.68 -0.49,-0.11 -0.98,-0.11 -1.48,-0.01 -0.5,0.11 -0.99,0.34 -1.46,0.68 -0.5,0.36 -0.87,0.75 -1.11,1.16 -0.24,0.42 -0.38,0.85 -0.41,1.28 -0.03,0.44 0.03,0.88 0.19,1.33 0.16,0.45 0.39,0.88 0.69,1.3 z m 0.94,-1.2 c -0.46,-0.61 -0.67,-1.19 -0.64,-1.75 0.04,-0.56 0.34,-1.05 0.91,-1.46 0.3,-0.21 0.59,-0.34 0.89,-0.38 0.3,-0.05 0.59,-0.04 0.87,0.03 0.28,0.08 0.54,0.21 0.8,0.39 0.25,0.18 0.47,0.4 0.67,0.65 z m -8.32,2.7 c 0.07,0.1 0.14,0.19 0.19,0.26 0.06,0.06 0.11,0.11 0.15,0.14 0.04,0.03 0.08,0.05 0.12,0.06 0.04,0 0.08,-0.01 0.11,-0.03 0.04,-0.03 0.08,-0.08 0.12,-0.14 0.04,-0.06 0.09,-0.12 0.14,-0.19 0.05,-0.08 0.12,-0.15 0.19,-0.23 0.07,-0.08 0.16,-0.16 0.26,-0.23 0.12,-0.09 0.25,-0.15 0.4,-0.18 0.15,-0.03 0.32,-0.04 0.53,-0.02 0.2,0.02 0.44,0.07 0.71,0.15 0.26,0.08 0.57,0.19 0.93,0.33 l 3.03,4.23 c 0.03,0.04 0.06,0.06 0.1,0.08 0.04,0.01 0.09,0.01 0.14,0 0.06,-0.01 0.13,-0.04 0.21,-0.09 0.09,-0.04 0.19,-0.11 0.31,-0.19 0.11,-0.09 0.2,-0.16 0.27,-0.22 0.07,-0.07 0.12,-0.13 0.15,-0.18 0.03,-0.05 0.05,-0.09 0.05,-0.13 -0.01,-0.04 -0.02,-0.08 -0.05,-0.12 l -4.61,-6.42 c -0.03,-0.04 -0.06,-0.07 -0.09,-0.08 -0.04,-0.02 -0.08,-0.02 -0.14,-0.01 -0.06,0.01 -0.12,0.03 -0.19,0.07 -0.08,0.04 -0.17,0.1 -0.28,0.18 -0.1,0.08 -0.18,0.14 -0.25,0.2 -0.06,0.06 -0.11,0.11 -0.13,0.16 -0.02,0.05 -0.03,0.09 -0.03,0.13 0,0.04 0.02,0.07 0.04,0.11 l 0.68,0.94 c -0.36,-0.13 -0.68,-0.22 -0.95,-0.27 -0.27,-0.05 -0.51,-0.08 -0.71,-0.07 -0.21,0.01 -0.39,0.04 -0.55,0.1 -0.16,0.06 -0.31,0.14 -0.45,0.24 -0.06,0.05 -0.13,0.1 -0.21,0.16 -0.07,0.07 -0.14,0.14 -0.21,0.22 -0.08,0.08 -0.14,0.16 -0.19,0.23 -0.05,0.08 -0.08,0.13 -0.09,0.18 -0.02,0.04 -0.02,0.08 -0.01,0.11 0,0.03 0.01,0.06 0.03,0.1 0.02,0.04 0.05,0.09 0.09,0.15 0.05,0.07 0.11,0.16 0.19,0.27 z m -2.54,10.92 c 0.03,0.03 0.06,0.06 0.1,0.07 0.04,0.02 0.08,0.02 0.14,0 0.06,-0.01 0.13,-0.04 0.21,-0.08 0.08,-0.05 0.18,-0.11 0.29,-0.19 0.12,-0.09 0.22,-0.16 0.29,-0.23 0.07,-0.06 0.12,-0.12 0.14,-0.17 0.03,-0.05 0.05,-0.09 0.05,-0.13 0,-0.04 -0.01,-0.08 -0.04,-0.12 l -2.7,-3.76 c -0.27,-0.37 -0.45,-0.68 -0.55,-0.95 -0.11,-0.26 -0.16,-0.52 -0.17,-0.76 -0.01,-0.24 0.05,-0.46 0.16,-0.67 0.11,-0.21 0.28,-0.4 0.51,-0.56 0.3,-0.22 0.67,-0.32 1.11,-0.33 0.45,0 0.98,0.09 1.59,0.26 l 3.23,4.49 c 0.02,0.04 0.06,0.06 0.09,0.08 0.04,0.01 0.09,0.01 0.14,0 0.06,-0.01 0.13,-0.04 0.21,-0.09 0.09,-0.04 0.19,-0.11 0.31,-0.19 0.11,-0.09 0.2,-0.16 0.27,-0.22 0.07,-0.07 0.12,-0.13 0.15,-0.18 0.04,-0.05 0.05,-0.09 0.05,-0.13 0,-0.04 -0.02,-0.08 -0.05,-0.12 l -4.61,-6.42 c -0.03,-0.04 -0.06,-0.07 -0.09,-0.08 -0.03,-0.02 -0.08,-0.02 -0.14,-0.01 -0.06,0.01 -0.12,0.03 -0.19,0.07 -0.07,0.04 -0.17,0.1 -0.27,0.18 -0.11,0.08 -0.19,0.14 -0.26,0.2 -0.06,0.06 -0.1,0.11 -0.13,0.16 -0.02,0.05 -0.03,0.09 -0.03,0.13 0,0.04 0.02,0.07 0.05,0.11 l 0.61,0.85 c -0.66,-0.14 -1.23,-0.18 -1.72,-0.11 -0.5,0.07 -0.93,0.24 -1.29,0.5 -0.43,0.31 -0.74,0.64 -0.93,0.99 -0.19,0.36 -0.29,0.72 -0.29,1.1 -0.01,0.37 0.07,0.75 0.22,1.13 0.16,0.38 0.4,0.8 0.73,1.26 z m -10.5,2.56 c 0.38,0.52 0.79,0.96 1.24,1.3 0.46,0.34 0.94,0.57 1.44,0.69 0.5,0.12 1.02,0.13 1.56,0.01 0.54,-0.12 1.08,-0.37 1.63,-0.76 0.53,-0.38 0.93,-0.79 1.21,-1.23 0.28,-0.44 0.44,-0.9 0.49,-1.39 0.05,-0.49 -0.02,-0.99 -0.2,-1.51 -0.18,-0.52 -0.46,-1.05 -0.85,-1.6 -0.38,-0.52 -0.79,-0.95 -1.24,-1.29 -0.46,-0.35 -0.93,-0.58 -1.44,-0.7 -0.5,-0.13 -1.02,-0.13 -1.55,-0.01 -0.54,0.12 -1.08,0.37 -1.63,0.77 -0.53,0.38 -0.93,0.79 -1.21,1.22 -0.28,0.44 -0.44,0.91 -0.49,1.39 -0.05,0.49 0.02,1 0.19,1.52 0.18,0.52 0.46,1.05 0.85,1.59 z m 1.28,-0.8 c -0.25,-0.35 -0.46,-0.7 -0.61,-1.05 -0.16,-0.36 -0.25,-0.71 -0.27,-1.05 -0.02,-0.34 0.05,-0.67 0.21,-0.99 0.16,-0.31 0.43,-0.61 0.81,-0.88 0.35,-0.25 0.69,-0.41 1.03,-0.47 0.34,-0.05 0.68,-0.03 1,0.08 0.33,0.11 0.64,0.29 0.94,0.54 0.3,0.26 0.59,0.57 0.85,0.93 0.25,0.35 0.46,0.71 0.61,1.06 0.16,0.36 0.25,0.71 0.26,1.05 0.02,0.34 -0.05,0.67 -0.21,0.98 -0.16,0.32 -0.43,0.62 -0.81,0.89 -0.34,0.25 -0.69,0.4 -1.03,0.46 -0.34,0.06 -0.68,0.04 -1,-0.07 -0.32,-0.11 -0.64,-0.29 -0.94,-0.54 -0.29,-0.25 -0.58,-0.57 -0.84,-0.94 z m -8.98,6.33 c 0.37,0.52 0.79,0.95 1.24,1.3 0.46,0.34 0.94,0.57 1.44,0.69 0.5,0.12 1.02,0.13 1.56,0.01 0.54,-0.12 1.08,-0.37 1.63,-0.76 0.52,-0.38 0.93,-0.79 1.21,-1.23 0.28,-0.44 0.44,-0.9 0.49,-1.39 0.04,-0.49 -0.02,-0.99 -0.2,-1.51 -0.18,-0.52 -0.46,-1.05 -0.85,-1.6 -0.38,-0.52 -0.79,-0.95 -1.25,-1.3 -0.45,-0.34 -0.92,-0.57 -1.43,-0.69 -0.5,-0.13 -1.02,-0.13 -1.55,-0.01 -0.54,0.12 -1.08,0.37 -1.63,0.77 -0.53,0.37 -0.93,0.78 -1.21,1.22 -0.28,0.44 -0.44,0.91 -0.49,1.39 -0.05,0.49 0.02,1 0.19,1.52 0.18,0.52 0.46,1.05 0.85,1.59 z m 1.28,-0.8 c -0.25,-0.35 -0.46,-0.7 -0.61,-1.05 -0.16,-0.36 -0.25,-0.71 -0.27,-1.05 -0.02,-0.34 0.05,-0.67 0.21,-0.99 0.16,-0.31 0.43,-0.61 0.8,-0.88 0.36,-0.25 0.7,-0.41 1.04,-0.47 0.34,-0.05 0.68,-0.03 1,0.08 0.33,0.11 0.64,0.29 0.94,0.54 0.3,0.26 0.59,0.57 0.85,0.93 0.25,0.35 0.46,0.71 0.61,1.06 0.16,0.36 0.25,0.71 0.26,1.05 0.02,0.34 -0.05,0.67 -0.21,0.98 -0.16,0.32 -0.43,0.62 -0.81,0.89 -0.34,0.25 -0.69,0.4 -1.03,0.46 -0.34,0.06 -0.68,0.04 -1,-0.07 -0.33,-0.11 -0.64,-0.29 -0.94,-0.54 -0.29,-0.26 -0.58,-0.57 -0.84,-0.94 z m -6.18,9.29 c 0.03,0.04 0.06,0.07 0.1,0.08 0.03,0.01 0.08,0.01 0.14,0 0.05,-0.01 0.12,-0.04 0.21,-0.08 0.08,-0.05 0.18,-0.11 0.29,-0.19 0.12,-0.09 0.22,-0.16 0.29,-0.23 0.06,-0.06 0.11,-0.12 0.14,-0.17 0.03,-0.05 0.05,-0.09 0.05,-0.13 0,-0.04 -0.02,-0.08 -0.04,-0.12 l -2.7,-3.76 c -0.27,-0.37 -0.45,-0.69 -0.55,-0.95 -0.11,-0.27 -0.16,-0.52 -0.17,-0.76 -0.01,-0.24 0.05,-0.46 0.16,-0.67 0.11,-0.22 0.28,-0.4 0.51,-0.57 0.29,-0.21 0.66,-0.32 1.11,-0.32 0.45,0 0.98,0.08 1.59,0.26 l 3.22,4.49 c 0.03,0.04 0.06,0.06 0.1,0.07 0.04,0.02 0.09,0.02 0.14,0 0.06,-0.01 0.13,-0.04 0.21,-0.08 0.09,-0.05 0.19,-0.11 0.31,-0.2 0.11,-0.08 0.2,-0.15 0.27,-0.22 0.07,-0.06 0.12,-0.12 0.15,-0.17 0.03,-0.05 0.05,-0.1 0.05,-0.13 -0.01,-0.04 -0.02,-0.08 -0.05,-0.12 l -4.61,-6.42 c -0.03,-0.04 -0.06,-0.07 -0.09,-0.08 -0.04,-0.02 -0.08,-0.02 -0.14,-0.01 -0.06,0 -0.12,0.03 -0.19,0.07 -0.08,0.04 -0.17,0.1 -0.28,0.18 -0.1,0.07 -0.19,0.14 -0.25,0.2 -0.06,0.05 -0.11,0.11 -0.13,0.16 -0.02,0.04 -0.03,0.09 -0.03,0.13 0,0.03 0.02,0.07 0.04,0.11 l 0.61,0.85 c -0.65,-0.15 -1.22,-0.18 -1.72,-0.11 -0.49,0.07 -0.92,0.23 -1.29,0.5 -0.42,0.3 -0.73,0.64 -0.92,0.99 -0.19,0.36 -0.29,0.72 -0.29,1.09 -0.01,0.38 0.06,0.75 0.22,1.14 0.15,0.38 0.4,0.8 0.72,1.25 z" /></g></g><g
       id="g470"><g
         clip-path="url(#clipPath476)"
         id="g472"><path
           id="path478"
           style="fill:#ffffff;fill-opacity:1;fill-rule:nonzero;stroke:none"
           d="m 308.77,334.39 c 0.09,-0.06 0.16,-0.11 0.22,-0.16 0.06,-0.05 0.11,-0.11 0.14,-0.16 0.02,-0.05 0.04,-0.1 0.04,-0.15 0,-0.04 -0.02,-0.08 -0.04,-0.12 l -2.93,-4.61 c -0.07,-0.11 -0.18,-0.2 -0.32,-0.25 -0.14,-0.05 -0.31,-0.02 -0.5,0.11 l -8.56,5.44 c -0.19,0.12 -0.3,0.26 -0.31,0.41 -0.01,0.15 0.02,0.28 0.09,0.39 l 2.9,4.56 c 0.02,0.04 0.06,0.07 0.1,0.09 0.04,0.02 0.09,0.02 0.14,0.01 0.06,-0.01 0.13,-0.03 0.2,-0.06 0.07,-0.03 0.16,-0.07 0.26,-0.14 0.09,-0.05 0.16,-0.11 0.22,-0.16 0.06,-0.06 0.1,-0.11 0.13,-0.15 0.03,-0.05 0.05,-0.1 0.05,-0.14 0,-0.05 -0.02,-0.09 -0.04,-0.13 l -2.39,-3.75 3.01,-1.91 2.05,3.21 c 0.03,0.04 0.06,0.07 0.1,0.09 0.04,0.02 0.09,0.03 0.15,0.02 0.05,0 0.12,-0.02 0.19,-0.05 0.08,-0.04 0.16,-0.08 0.25,-0.14 0.09,-0.06 0.17,-0.11 0.23,-0.16 0.05,-0.06 0.09,-0.1 0.12,-0.15 0.03,-0.05 0.04,-0.09 0.03,-0.14 0,-0.04 -0.01,-0.08 -0.04,-0.12 l -2.05,-3.22 3.44,-2.18 2.42,3.8 c 0.02,0.04 0.06,0.07 0.1,0.09 0.04,0.02 0.09,0.03 0.14,0.03 0.06,-0.01 0.13,-0.02 0.2,-0.06 0.07,-0.03 0.16,-0.08 0.26,-0.14 z m -1.85,11.12 c 0.02,-0.01 0.04,-0.03 0.06,-0.04 0.02,-0.02 0.04,-0.04 0.06,-0.06 0.03,-0.02 0.05,-0.04 0.07,-0.07 0.03,-0.03 0.06,-0.06 0.08,-0.09 l 4.9,-6.31 c 0.04,-0.05 0.07,-0.11 0.08,-0.16 0.02,-0.05 0.01,-0.12 -0.01,-0.2 -0.02,-0.07 -0.06,-0.16 -0.11,-0.27 -0.06,-0.1 -0.13,-0.23 -0.23,-0.38 -0.09,-0.14 -0.18,-0.26 -0.25,-0.36 -0.07,-0.09 -0.14,-0.16 -0.2,-0.21 -0.06,-0.05 -0.11,-0.08 -0.17,-0.09 -0.06,-0.01 -0.12,-0.02 -0.18,0 l -7.78,1.76 c -0.07,0.02 -0.14,0.03 -0.19,0.05 -0.05,0.02 -0.09,0.03 -0.11,0.04 -0.03,0.01 -0.05,0.02 -0.06,0.03 -0.04,0.03 -0.07,0.06 -0.09,0.1 -0.01,0.04 -0.02,0.09 0,0.14 0.01,0.06 0.04,0.13 0.08,0.21 0.05,0.08 0.1,0.18 0.18,0.29 0.09,0.14 0.16,0.26 0.23,0.34 0.06,0.08 0.11,0.14 0.16,0.17 0.05,0.04 0.1,0.06 0.14,0.06 0.05,0 0.1,0 0.16,-0.01 l 6.7,-1.61 0.1,-0.03 -0.07,0.08 -4.32,5.36 c -0.04,0.04 -0.06,0.08 -0.08,0.12 -0.01,0.04 -0.01,0.1 0,0.16 0.01,0.06 0.03,0.13 0.08,0.21 0.04,0.09 0.11,0.2 0.19,0.33 0.07,0.12 0.14,0.21 0.19,0.28 0.05,0.07 0.1,0.12 0.15,0.15 0.04,0.03 0.09,0.05 0.12,0.05 0.04,0 0.08,-0.02 0.12,-0.04 z m 7.52,5.06 c 0.19,-0.12 0.3,-0.26 0.32,-0.41 0.02,-0.15 -0.01,-0.28 -0.09,-0.41 l -2.8,-4.39 c 0.38,-0.24 0.73,-0.41 1.08,-0.53 0.34,-0.11 0.67,-0.15 1,-0.11 0.32,0.04 0.63,0.16 0.92,0.37 0.29,0.2 0.56,0.51 0.82,0.91 0.2,0.32 0.35,0.62 0.46,0.9 0.11,0.28 0.19,0.53 0.24,0.75 0.05,0.22 0.08,0.41 0.11,0.56 0.02,0.15 0.05,0.25 0.09,0.31 0.02,0.04 0.05,0.06 0.08,0.08 0.04,0.02 0.08,0.02 0.12,0.01 0.04,0 0.1,-0.02 0.17,-0.05 0.06,-0.04 0.14,-0.08 0.23,-0.14 0.06,-0.04 0.12,-0.07 0.16,-0.11 0.05,-0.03 0.08,-0.07 0.12,-0.1 0.03,-0.03 0.05,-0.06 0.07,-0.1 0.02,-0.04 0.04,-0.08 0.05,-0.12 0.01,-0.04 0,-0.15 -0.02,-0.33 -0.03,-0.17 -0.08,-0.38 -0.15,-0.63 -0.08,-0.25 -0.18,-0.53 -0.31,-0.84 -0.13,-0.31 -0.3,-0.62 -0.5,-0.94 -0.35,-0.55 -0.73,-0.98 -1.15,-1.29 -0.41,-0.32 -0.86,-0.52 -1.34,-0.61 -0.48,-0.09 -1,-0.07 -1.54,0.08 -0.55,0.15 -1.12,0.41 -1.73,0.79 -0.57,0.37 -1.04,0.77 -1.4,1.21 -0.36,0.44 -0.62,0.9 -0.76,1.38 -0.14,0.48 -0.17,0.98 -0.09,1.48 0.08,0.51 0.28,1 0.59,1.49 0.33,0.53 0.7,0.92 1.1,1.18 0.41,0.26 0.82,0.42 1.26,0.48 0.43,0.05 0.88,0.02 1.33,-0.12 0.46,-0.13 0.9,-0.33 1.34,-0.61 z m -1.15,-1 c -0.63,0.42 -1.23,0.6 -1.78,0.53 -0.56,-0.07 -1.03,-0.4 -1.4,-0.99 -0.2,-0.3 -0.31,-0.6 -0.34,-0.91 -0.03,-0.3 0,-0.58 0.09,-0.86 0.09,-0.27 0.23,-0.53 0.43,-0.77 0.19,-0.25 0.42,-0.46 0.69,-0.64 z m 9.64,6.34 c 0.04,-0.03 0.06,-0.06 0.08,-0.09 0.01,-0.04 0.02,-0.09 0.01,-0.15 -0.01,-0.05 -0.03,-0.12 -0.08,-0.21 -0.04,-0.08 -0.09,-0.19 -0.17,-0.31 -0.08,-0.12 -0.15,-0.22 -0.21,-0.29 -0.06,-0.07 -0.11,-0.13 -0.16,-0.16 -0.05,-0.03 -0.09,-0.05 -0.13,-0.05 -0.04,0 -0.08,0.01 -0.12,0.04 l -3.91,2.48 c -0.38,0.24 -0.71,0.41 -0.98,0.5 -0.27,0.08 -0.52,0.13 -0.76,0.12 -0.24,-0.01 -0.46,-0.07 -0.67,-0.2 -0.2,-0.12 -0.38,-0.3 -0.53,-0.54 -0.19,-0.31 -0.28,-0.68 -0.26,-1.13 0.02,-0.44 0.14,-0.97 0.35,-1.57 l 4.66,-2.97 c 0.04,-0.02 0.07,-0.05 0.08,-0.09 0.02,-0.04 0.02,-0.08 0.01,-0.14 -0.01,-0.06 -0.03,-0.13 -0.07,-0.21 -0.04,-0.09 -0.1,-0.19 -0.18,-0.32 -0.08,-0.12 -0.14,-0.21 -0.2,-0.28 -0.06,-0.08 -0.12,-0.13 -0.17,-0.16 -0.05,-0.04 -0.09,-0.06 -0.13,-0.06 -0.04,0 -0.08,0.02 -0.12,0.04 l -6.67,4.25 c -0.04,0.02 -0.07,0.05 -0.09,0.08 -0.02,0.03 -0.02,0.08 -0.02,0.14 0.01,0.06 0.03,0.12 0.07,0.2 0.03,0.07 0.09,0.16 0.16,0.28 0.07,0.11 0.13,0.19 0.18,0.26 0.06,0.07 0.11,0.11 0.16,0.14 0.04,0.03 0.09,0.04 0.12,0.04 0.04,0 0.08,-0.01 0.12,-0.04 l 0.88,-0.56 c -0.18,0.64 -0.25,1.21 -0.21,1.71 0.05,0.5 0.19,0.94 0.43,1.32 0.28,0.44 0.6,0.77 0.94,0.98 0.35,0.21 0.7,0.32 1.07,0.35 0.38,0.03 0.76,-0.02 1.15,-0.16 0.39,-0.13 0.82,-0.35 1.3,-0.65 z m 2.21,3.47 c 0.04,-0.02 0.06,-0.05 0.08,-0.09 0.01,-0.04 0.02,-0.08 0.01,-0.14 -0.01,-0.06 -0.03,-0.13 -0.08,-0.21 -0.04,-0.09 -0.1,-0.19 -0.17,-0.32 -0.08,-0.12 -0.15,-0.21 -0.21,-0.28 -0.06,-0.08 -0.11,-0.13 -0.16,-0.17 -0.05,-0.03 -0.1,-0.05 -0.13,-0.05 -0.04,0 -0.08,0.02 -0.12,0.04 l -6.68,4.25 c -0.03,0.02 -0.06,0.05 -0.08,0.08 -0.01,0.04 -0.02,0.09 -0.01,0.15 0.01,0.06 0.04,0.13 0.08,0.21 0.04,0.09 0.1,0.19 0.17,0.31 0.08,0.12 0.15,0.22 0.21,0.29 0.06,0.08 0.11,0.13 0.16,0.16 0.05,0.03 0.1,0.05 0.14,0.05 0.04,0 0.08,-0.01 0.11,-0.03 z m -8.84,5.82 c 0.28,-0.18 0.45,-0.36 0.48,-0.53 0.03,-0.18 -0.04,-0.41 -0.23,-0.7 -0.18,-0.29 -0.35,-0.45 -0.52,-0.49 -0.17,-0.05 -0.4,0.02 -0.68,0.2 -0.29,0.18 -0.45,0.36 -0.48,0.54 -0.04,0.17 0.04,0.4 0.22,0.7 0.19,0.28 0.36,0.45 0.53,0.49 0.17,0.04 0.4,-0.03 0.68,-0.21 z m 13.9,2.15 c 0.04,-0.02 0.07,-0.05 0.08,-0.09 0.02,-0.04 0.02,-0.09 0.01,-0.14 0,-0.06 -0.03,-0.13 -0.07,-0.22 -0.04,-0.08 -0.1,-0.18 -0.17,-0.3 -0.08,-0.13 -0.15,-0.22 -0.21,-0.3 -0.06,-0.07 -0.12,-0.12 -0.16,-0.15 -0.05,-0.04 -0.1,-0.05 -0.14,-0.06 -0.04,0 -0.08,0.01 -0.11,0.04 l -3.91,2.48 c -0.38,0.25 -0.71,0.41 -0.98,0.5 -0.27,0.09 -0.52,0.13 -0.77,0.12 -0.24,-0.01 -0.46,-0.07 -0.66,-0.19 -0.21,-0.13 -0.38,-0.31 -0.53,-0.55 -0.2,-0.3 -0.28,-0.68 -0.26,-1.12 0.02,-0.45 0.14,-0.97 0.34,-1.58 l 4.67,-2.96 c 0.04,-0.03 0.06,-0.06 0.08,-0.1 0.01,-0.03 0.02,-0.08 0.01,-0.14 -0.01,-0.05 -0.04,-0.13 -0.08,-0.21 -0.04,-0.09 -0.1,-0.19 -0.17,-0.31 -0.08,-0.12 -0.15,-0.22 -0.21,-0.29 -0.06,-0.07 -0.11,-0.13 -0.16,-0.16 -0.05,-0.04 -0.1,-0.05 -0.13,-0.05 -0.04,0 -0.08,0.01 -0.12,0.03 l -6.68,4.25 c -0.04,0.02 -0.06,0.05 -0.08,0.08 -0.02,0.04 -0.03,0.08 -0.02,0.14 0.01,0.06 0.03,0.13 0.06,0.2 0.04,0.07 0.1,0.17 0.17,0.28 0.07,0.11 0.13,0.2 0.18,0.26 0.05,0.07 0.1,0.12 0.15,0.14 0.05,0.03 0.09,0.04 0.13,0.04 0.04,0 0.08,-0.01 0.12,-0.04 l 0.88,-0.56 c -0.18,0.65 -0.25,1.22 -0.21,1.71 0.04,0.5 0.18,0.94 0.43,1.32 0.28,0.45 0.59,0.77 0.94,0.98 0.34,0.21 0.7,0.33 1.07,0.35 0.37,0.03 0.75,-0.02 1.14,-0.16 0.39,-0.13 0.83,-0.35 1.3,-0.65 z m -1.39,11.88 c 0.17,-0.11 0.28,-0.21 0.33,-0.31 0.05,-0.09 0.05,-0.18 0,-0.25 l -0.61,-0.96 c 0.29,0.06 0.56,0.06 0.82,-0.01 0.26,-0.07 0.51,-0.17 0.74,-0.32 0.38,-0.25 0.69,-0.53 0.9,-0.84 0.22,-0.31 0.36,-0.65 0.42,-1.01 0.06,-0.36 0.04,-0.73 -0.05,-1.12 -0.09,-0.38 -0.26,-0.77 -0.51,-1.15 -0.17,-0.28 -0.37,-0.51 -0.6,-0.71 -0.22,-0.2 -0.43,-0.33 -0.63,-0.4 0.03,-0.14 0.09,-0.28 0.17,-0.41 0.07,-0.13 0.19,-0.24 0.34,-0.33 0.17,-0.11 0.36,-0.12 0.58,-0.04 0.22,0.09 0.41,0.27 0.59,0.53 l 1.19,1.69 c 0.22,0.33 0.45,0.6 0.71,0.83 0.26,0.22 0.53,0.39 0.81,0.5 0.28,0.1 0.56,0.14 0.86,0.12 0.29,-0.03 0.58,-0.13 0.87,-0.32 0.31,-0.19 0.56,-0.44 0.76,-0.75 0.19,-0.3 0.31,-0.65 0.35,-1.05 0.04,-0.4 -0.01,-0.84 -0.15,-1.33 -0.14,-0.49 -0.38,-1.01 -0.74,-1.57 -0.34,-0.54 -0.68,-0.97 -1.01,-1.29 -0.33,-0.32 -0.65,-0.55 -0.97,-0.69 -0.31,-0.14 -0.61,-0.2 -0.9,-0.17 -0.29,0.03 -0.56,0.13 -0.82,0.29 -0.16,0.11 -0.31,0.23 -0.44,0.37 -0.12,0.13 -0.23,0.29 -0.32,0.46 -0.08,0.16 -0.15,0.35 -0.2,0.55 -0.05,0.2 -0.09,0.42 -0.11,0.66 -0.28,-0.16 -0.55,-0.25 -0.81,-0.24 -0.26,0 -0.5,0.07 -0.72,0.21 -0.3,0.19 -0.53,0.43 -0.69,0.7 -0.16,0.27 -0.27,0.56 -0.34,0.87 -0.28,-0.04 -0.57,-0.03 -0.85,0.03 -0.29,0.05 -0.6,0.19 -0.92,0.39 -0.38,0.24 -0.68,0.53 -0.9,0.85 -0.22,0.32 -0.37,0.66 -0.43,1.02 -0.06,0.36 -0.05,0.73 0.04,1.12 0.1,0.39 0.26,0.77 0.5,1.15 0.13,0.2 0.26,0.38 0.39,0.54 0.14,0.17 0.27,0.31 0.41,0.44 l 1.28,2.02 c 0.06,0.08 0.14,0.12 0.25,0.11 0.1,-0.01 0.24,-0.07 0.41,-0.18 z m 0.54,-3.03 c -0.45,0.29 -0.89,0.39 -1.3,0.3 -0.41,-0.08 -0.77,-0.36 -1.06,-0.82 -0.15,-0.24 -0.24,-0.47 -0.27,-0.69 -0.04,-0.23 -0.02,-0.44 0.04,-0.65 0.07,-0.2 0.17,-0.39 0.32,-0.56 0.14,-0.17 0.31,-0.32 0.51,-0.45 0.44,-0.28 0.87,-0.37 1.28,-0.28 0.41,0.09 0.76,0.36 1.04,0.81 0.16,0.24 0.25,0.47 0.29,0.7 0.03,0.23 0.02,0.44 -0.04,0.64 -0.06,0.21 -0.16,0.39 -0.31,0.56 -0.14,0.17 -0.31,0.32 -0.5,0.44 z m 5.68,-2.75 c -0.29,0.19 -0.58,0.21 -0.89,0.07 -0.3,-0.13 -0.59,-0.4 -0.85,-0.79 l -1.16,-1.69 c 0.02,-0.24 0.06,-0.44 0.11,-0.61 0.04,-0.18 0.1,-0.32 0.16,-0.45 0.06,-0.12 0.14,-0.23 0.22,-0.31 0.09,-0.09 0.18,-0.16 0.29,-0.23 0.32,-0.2 0.67,-0.19 1.04,0.03 0.37,0.22 0.74,0.62 1.11,1.2 0.24,0.37 0.4,0.71 0.49,1 0.09,0.3 0.12,0.56 0.1,0.79 -0.02,0.23 -0.09,0.42 -0.2,0.59 -0.11,0.16 -0.25,0.3 -0.42,0.4 z" /></g></g></g></svg>